<svg width="12" height="21" viewBox="0 0 12 21" fill="none" xmlns="http://www.w3.org/2000/svg">
<path id="Vector" d="M12 0.590038C12 0.435379 11.9425 0.287055 11.8402 0.177694C11.7379 0.0683341 11.5992 0.00689602 11.4545 0.00689602H8.72727C7.35395 -0.0662406 6.00938 0.444709 4.98733 1.42811C3.96529 2.4115 3.34886 3.7874 3.27273 5.25517V8.40414H0.545455C0.400791 8.40414 0.262053 8.46558 0.15976 8.57494C0.0574675 8.6843 0 8.83262 0 8.98728V12.0196C0 12.1743 0.0574675 12.3226 0.15976 12.432C0.262053 12.5413 0.400791 12.6028 0.545455 12.6028H3.27273V20.4169C3.27273 20.5715 3.33019 20.7198 3.43249 20.8292C3.53478 20.9386 3.67352 21 3.81818 21H7.09091C7.23557 21 7.37431 20.9386 7.4766 20.8292C7.5789 20.7198 7.63636 20.5715 7.63636 20.4169V12.6028H10.4945C10.6158 12.6046 10.7343 12.5632 10.8311 12.485C10.9279 12.4069 10.9976 12.2965 11.0291 12.1712L11.8145 9.1389C11.8362 9.05273 11.8392 8.9624 11.8231 8.87484C11.807 8.78728 11.7723 8.70484 11.7217 8.63386C11.6711 8.56288 11.606 8.50526 11.5313 8.46544C11.4566 8.42561 11.3744 8.40464 11.2909 8.40414H7.63636V5.25517C7.6635 4.96649 7.79031 4.69899 7.99203 4.50489C8.19375 4.3108 8.45589 4.20406 8.72727 4.20552H11.4545C11.5992 4.20552 11.7379 4.14408 11.8402 4.03472C11.9425 3.92536 12 3.77703 12 3.62238V0.590038Z" fill="#CC6262"/>
</svg>
