<svg width="19" height="18" viewBox="0 0 19 18" fill="none" xmlns="http://www.w3.org/2000/svg">
<path id="Vector" d="M10.4766 0.00110732C11.1698 -0.0014128 11.863 0.00518768 12.5561 0.0209067L12.7403 0.0272065C12.9531 0.0344062 13.1631 0.0434059 13.4167 0.0542055C14.4275 0.099204 15.1171 0.250399 15.7222 0.472691C16.3492 0.701284 16.8774 1.01087 17.4056 1.51126C17.8885 1.96089 18.2622 2.50477 18.5008 3.1051C18.7355 3.67838 18.8951 4.33266 18.9426 5.29023C18.954 5.52962 18.9635 5.72941 18.9711 5.93101L18.9768 6.1056C18.9937 6.76185 19.0009 7.41829 18.9986 8.07473L18.9996 8.74611V9.92507C19.0019 10.5818 18.9946 11.2386 18.9777 11.8951L18.972 12.0697C18.9644 12.2713 18.9549 12.4702 18.9435 12.7105C18.896 13.668 18.7345 14.3214 18.5008 14.8947C18.263 15.4957 17.8892 16.04 17.4056 16.4894C16.9305 16.9469 16.3562 17.301 15.7222 17.5271C15.1171 17.7494 14.4275 17.9006 13.4167 17.9456C13.1631 17.9564 12.9531 17.9654 12.7403 17.9726L12.5561 17.978C11.863 17.994 11.1698 18.0009 10.4766 17.9987L9.76795 17.9996H8.52446C7.83124 18.0018 7.13803 17.9949 6.44502 17.9789L6.26073 17.9735C6.03522 17.9658 5.80976 17.9568 5.58436 17.9465C4.57361 17.9015 3.88395 17.7485 3.27788 17.5271C2.64396 17.3015 2.06977 16.9474 1.59552 16.4894C1.11203 16.0397 0.737923 15.4955 0.499273 14.8947C0.264635 14.3214 0.105043 13.668 0.0575451 12.7105C0.0469655 12.4969 0.0374659 12.2833 0.0290466 12.0697L0.024297 11.8951C0.0067833 11.2386 -0.00113381 10.5818 0.000548123 9.92507V8.07473C-0.00210316 7.41829 0.00486389 6.76185 0.0214471 6.1056L0.0280968 5.93101C0.0356964 5.72941 0.0451958 5.52962 0.0565953 5.29023C0.104093 4.33176 0.263685 3.67928 0.498322 3.1051C0.737114 2.50448 1.11196 1.96074 1.59647 1.51216C2.07039 1.05385 2.64423 0.699099 3.27788 0.472691C3.88395 0.250399 4.57266 0.099204 5.58436 0.0542055L6.26073 0.0272065L6.44502 0.0227067C7.13771 0.00612283 7.8306 -0.00137772 8.52351 0.000207414L10.4766 0.00110732ZM9.50006 4.50005C8.24035 4.50005 7.03223 4.97414 6.14148 5.81803C5.25072 6.66191 4.7503 7.80647 4.7503 8.9999C4.7503 10.1933 5.25072 11.3379 6.14148 12.1818C7.03223 13.0257 8.24035 13.4997 9.50006 13.4997C10.7598 13.4997 11.9679 13.0257 12.8586 12.1818C13.7494 11.3379 14.2498 10.1933 14.2498 8.9999C14.2498 7.80647 13.7494 6.66191 12.8586 5.81803C11.9679 4.97414 10.7598 4.50005 9.50006 4.50005ZM9.50006 6.29999C9.87431 6.29993 10.2449 6.36971 10.5907 6.50534C10.9365 6.64097 11.2507 6.83979 11.5154 7.09046C11.78 7.34113 11.99 7.63873 12.1333 7.96628C12.2766 8.29382 12.3503 8.64489 12.3504 8.99945C12.3505 9.35401 12.2768 9.7051 12.1336 10.0327C11.9905 10.3603 11.7806 10.658 11.516 10.9087C11.2514 11.1595 10.9373 11.3584 10.5916 11.4941C10.2458 11.6299 9.87526 11.6997 9.50101 11.6998C8.74518 11.6998 8.02031 11.4154 7.48586 10.909C6.95141 10.4027 6.65116 9.71596 6.65116 8.9999C6.65116 8.28384 6.95141 7.59711 7.48586 7.09078C8.02031 6.58445 8.74518 6.29999 9.50101 6.29999M14.4883 3.1501C14.1818 3.16172 13.892 3.28523 13.6795 3.49476C13.467 3.70429 13.3483 3.98359 13.3483 4.27416C13.3483 4.56473 13.467 4.84403 13.6795 5.05356C13.892 5.26309 14.1818 5.3866 14.4883 5.39822C14.8032 5.39822 15.1052 5.2797 15.3279 5.06873C15.5506 4.85776 15.6757 4.57162 15.6757 4.27326C15.6757 3.9749 15.5506 3.68877 15.3279 3.47779C15.1052 3.26682 14.8032 3.1483 14.4883 3.1483" fill="#CC6262"/>
</svg>
