<svg width="14" height="18" viewBox="0 0 14 18" fill="none" xmlns="http://www.w3.org/2000/svg">
<path id="Vector" d="M5.75408 11.9056C5.28159 14.3822 4.70718 16.7581 2.99507 18C2.46884 14.2562 3.77145 11.4412 4.3755 8.45516C3.34527 6.72006 4.49965 3.22466 6.67314 4.08681C9.35062 5.14515 4.35698 10.5412 7.71078 11.2144C11.2091 11.92 12.6396 5.14155 10.4679 2.93488C7.33278 -0.247335 1.33855 2.86288 2.07602 7.42022C2.25575 8.53615 3.40642 8.87273 2.53554 10.4098C0.52882 9.96527 -0.0696778 8.38136 0.00629241 6.27008C0.130439 2.81429 3.10995 0.397027 6.10058 0.0604463C9.88056 -0.362529 13.4271 1.44997 13.9181 5.00656C14.4684 9.02032 12.2115 13.3689 8.16845 13.0557C7.07522 12.9711 6.61199 12.4257 5.75408 11.9038V11.9056Z" fill="#CC6262"/>
</svg>
