<svg width="19" height="14" viewBox="0 0 19 14" fill="none" xmlns="http://www.w3.org/2000/svg">
<path id="Vector" d="M19 1.66195C18.2884 1.94721 17.5338 2.13455 16.7612 2.21778C17.5749 1.77611 18.1838 1.08141 18.4743 0.263089C17.71 0.675315 16.8721 0.964211 15.9997 1.12048C15.4131 0.551629 14.6355 0.174362 13.7879 0.0473339C12.9403 -0.0796944 12.0701 0.0506337 11.3126 0.418057C10.5552 0.78548 9.95288 1.36941 9.59937 2.07907C9.24587 2.78873 9.16096 3.58436 9.35786 4.34226C7.80779 4.27198 6.29136 3.907 4.90704 3.27104C3.52273 2.63507 2.30147 1.74234 1.32259 0.650818C0.976135 1.19013 0.794072 1.80321 0.795045 2.42727C0.795045 3.65212 1.48384 4.73422 2.52867 5.36776C1.9098 5.35007 1.30455 5.1986 0.763355 4.92597V4.96905C0.763327 5.78495 1.07469 6.57573 1.64465 7.20729C2.2146 7.83885 3.00804 8.27229 3.89041 8.43411C3.31593 8.57536 2.71349 8.59616 2.12882 8.49493C2.37761 9.19723 2.86255 9.81141 3.51572 10.2514C4.16889 10.6915 4.95758 10.9353 5.7713 10.9489C4.96261 11.5245 4.03664 11.95 3.04635 12.201C2.05605 12.4521 1.02087 12.5237 0 12.4119C1.78183 13.4504 3.85602 14.0017 5.97449 14C13.1457 14 17.066 8.61657 17.066 3.94778C17.066 3.79573 17.0623 3.64199 17.0548 3.49078C17.8176 2.99101 18.476 2.372 18.9991 1.6628" fill="#CC6262"/>
</svg>
